<svg width="788" height="94" viewBox="0 0 788 94" fill="none" xmlns="http://www.w3.org/2000/svg">
<path d="M786.172 31.3345L777.572 42.2345C772.972 37.2345 767.772 34.9345 760.172 34.9345H760.072C752.072 34.9345 747.172 37.4345 747.172 41.7345C747.172 44.7345 748.972 47.0345 756.572 48.6345L769.972 51.6345C783.572 54.5345 787.172 63.8345 787.172 73.0345C787.172 85.9345 775.772 93.4345 759.872 93.4345H759.772C745.072 93.4345 734.672 88.3345 729.372 78.4345L741.472 69.6345C745.972 77.7345 752.172 80.3345 760.072 80.3345H760.172C767.972 80.3345 772.172 77.4345 772.172 72.6345C772.172 68.5345 769.472 66.0345 763.672 64.6345L748.272 60.8345C736.772 58.0345 732.272 50.8345 732.272 42.3345C732.272 28.8345 743.772 21.8345 760.672 21.8345H760.772C771.672 21.8345 780.472 25.1345 786.172 31.3345Z" fill="white"/>
<path d="M669.216 23.0344H725.516V37.2344H704.716V92.2344H690.016V37.2344H669.216V23.0344Z" fill="white"/>
<path d="M665.177 30.2345L657.077 41.3345C652.477 37.4345 647.077 35.6345 640.977 35.6345H640.877C627.977 35.6345 620.077 45.1345 620.077 57.5345V57.6345C620.177 70.2345 628.077 79.6345 640.877 79.6345H640.977C647.777 79.6345 652.777 77.5345 657.077 73.9345L665.177 85.0345C659.077 90.6345 650.877 93.4345 640.977 93.4345H640.877C618.677 93.4345 605.277 78.6345 605.277 57.6345V57.5345C605.277 36.6345 618.677 21.8345 640.877 21.8345H640.977C650.077 21.8345 658.677 24.3345 665.177 30.2345Z" fill="white"/>
<path d="M550.195 23.0344H597.395V36.8344H564.995V50.8344H593.595V64.6344H564.995V78.4344H597.395V92.2344H550.195V23.0344Z" fill="white"/>
<path d="M500.209 23.0344H537.209V65.4344C537.209 83.0344 527.709 93.4344 510.309 93.4344H510.209C501.509 93.4344 494.509 91.0344 489.309 85.2344L497.409 73.0344C500.209 76.9344 504.109 79.1344 510.209 79.1344H510.309C518.409 79.1344 522.409 74.3344 522.409 65.4344V36.9344H500.209V23.0344Z" fill="white"/>
<path d="M450.642 21.8345H450.742C472.842 21.8345 486.342 36.6345 486.342 57.5345V57.6345C486.342 78.6345 472.842 93.4345 450.742 93.4345H450.642C428.542 93.4345 415.042 78.6345 415.042 57.6345V57.5345C415.042 36.6345 428.542 21.8345 450.642 21.8345ZM450.642 79.6345H450.742C463.642 79.6345 471.542 70.5345 471.542 57.6345V57.5345C471.542 44.7345 463.642 35.6345 450.742 35.6345H450.642C437.742 35.6345 429.842 44.7345 429.842 57.5345V57.6345C429.842 70.5345 437.742 79.6345 450.642 79.6345Z" fill="white"/>
<path d="M409.262 92.2344H392.762L378.762 69.8344H366.362V92.2344H351.562V23.0344H379.962C397.662 23.0344 407.562 31.9344 407.562 46.6344V46.7344C407.562 57.3344 402.462 64.6344 392.962 67.9344L409.262 92.2344ZM379.962 36.3344H366.362V57.1344H379.962C387.862 57.1344 392.762 54.2344 392.762 46.7344V46.6344C392.762 39.3344 387.862 36.3344 379.962 36.3344Z" fill="white"/>
<path d="M285.644 23.0344H312.744C331.644 23.0344 341.644 31.9344 341.644 48.4344V48.5344C341.644 65.0344 331.644 73.8344 312.744 73.8344H300.444V92.2344H285.644V23.0344ZM326.844 48.5344V48.4344C326.844 40.5344 322.044 36.9344 312.744 36.9344H300.444V59.8344H312.744C322.044 59.8344 326.844 56.5344 326.844 48.5344Z" fill="white"/>
<path d="M213.923 21.8347H214.023C236.123 21.8347 249.623 36.6347 249.623 57.5347V57.6347C249.623 78.6347 236.123 93.4347 214.023 93.4347H213.923C191.823 93.4347 178.323 78.6347 178.323 57.6347V57.5347C178.323 36.6347 191.823 21.8347 213.923 21.8347ZM213.923 79.6347H214.023C226.923 79.6347 234.823 70.5347 234.823 57.6347V57.5347C234.823 44.7347 226.923 35.6347 214.023 35.6347H213.923C201.023 35.6347 193.123 44.7347 193.123 57.5347V57.6347C193.123 70.5347 201.023 79.6347 213.923 79.6347Z" fill="white"/>
<path d="M172.543 92.2347H156.043L142.043 69.8347H129.643V92.2347H114.843V23.0347H143.243C160.943 23.0347 170.843 31.9347 170.843 46.6347V46.7347C170.843 57.3347 165.743 64.6347 156.243 67.9347L172.543 92.2347ZM143.243 36.3347H129.643V57.1347H143.243C151.143 57.1347 156.043 54.2347 156.043 46.7347V46.6347C156.043 39.3347 151.143 36.3347 143.243 36.3347Z" fill="white"/>
<path d="M48.925 23.0347H76.0251C94.925 23.0347 104.925 31.9347 104.925 48.4347V48.5347C104.925 65.0347 94.925 73.8347 76.0251 73.8347H63.725V92.2347H48.925V23.0347ZM90.125 48.5347V48.4347C90.125 40.5347 85.3251 36.9347 76.0251 36.9347H63.725V59.8347H76.0251C85.3251 59.8347 90.125 56.5347 90.125 48.5347Z" fill="white"/>
<path d="M19.7258 92.2347H34.5258L34.5259 20.7344L19.7258 35.9736V92.2347Z" fill="white"/>
<path d="M12.5345 12.2411L37.0259 12.2354L12.5347 37.3255L12.5345 12.2411Z" fill="#FE9105"/>
</svg>
