<svg width="512" height="512" viewBox="0 0 512 512" fill="none" xmlns="http://www.w3.org/2000/svg">
  <rect width="512" height="512" rx="112" fill="#1A1A17"/>
  <g transform="translate(21.59 161.52) scale(1.788)">
    <!-- o -->
    <path d="M213.923 21.8347H214.023C236.123 21.8347 249.623 36.6347 249.623 57.5347V57.6347C249.623 78.6347 236.123 93.4347 214.023 93.4347H213.923C191.823 93.4347 178.323 78.6347 178.323 57.6347V57.5347C178.323 36.6347 191.823 21.8347 213.923 21.8347ZM213.923 79.6347H214.023C226.923 79.6347 234.823 70.5347 234.823 57.6347V57.5347C234.823 44.7347 226.923 35.6347 214.023 35.6347H213.923C201.023 35.6347 193.123 44.7347 193.123 57.5347V57.6347C193.123 70.5347 201.023 79.6347 213.923 79.6347Z" fill="#FFFFFF"/>
    <!-- r -->
    <path d="M172.543 92.2347H156.043L142.043 69.8347H129.643V92.2347H114.843V23.0347H143.243C160.943 23.0347 170.843 31.9347 170.843 46.6347V46.7347C170.843 57.3347 165.743 64.6347 156.243 67.9347L172.543 92.2347ZM143.243 36.3347H129.643V57.1347H143.243C151.143 57.1347 156.043 54.2347 156.043 46.7347V46.6347C156.043 39.3347 151.143 36.3347 143.243 36.3347Z" fill="#FFFFFF"/>
    <!-- P -->
    <path d="M48.925 23.0347H76.0251C94.925 23.0347 104.925 31.9347 104.925 48.4347V48.5347C104.925 65.0347 94.925 73.8347 76.0251 73.8347H63.725V92.2347H48.925V23.0347ZM90.125 48.5347V48.4347C90.125 40.5347 85.3251 36.9347 76.0251 36.9347H63.725V59.8347H76.0251C85.3251 59.8347 90.125 56.5347 90.125 48.5347Z" fill="#FFFFFF"/>
    <!-- i stem -->
    <path d="M19.7258 92.2347H34.5258L34.5259 20.7344L19.7258 35.9736V92.2347Z" fill="#FFFFFF"/>
    <!-- i accent (brand orange) -->
    <path d="M12.5345 12.2411L37.0259 12.2354L12.5347 37.3255L12.5345 12.2411Z" fill="#FE9105"/>
  </g>
</svg>
